<?xml version="1.0" encoding="UTF-8" standalone="no"?>
<!DOCTYPE svg PUBLIC "-//W3C//DTD SVG 1.1//EN"
 "http://www.w3.org/Graphics/SVG/1.1/DTD/svg11.dtd">
<!-- Generated by graphviz version 2.38.0 (20140413.2041)
 -->
<!-- Title: models_diagram Pages: 1 -->
<svg width="420pt" height="441pt"
 viewBox="0.00 0.00 419.69 441.00" xmlns="http://www.w3.org/2000/svg" xmlns:xlink="http://www.w3.org/1999/xlink">
<g id="graph0" class="graph" transform="scale(1 1) rotate(0) translate(4 437)">
<title>models_diagram</title>
<polygon fill="white" stroke="none" points="-4,4 -4,-437 415.688,-437 415.688,4 -4,4"/>
<!-- _diagram_info -->
<g id="node1" class="node"><title>_diagram_info</title>
<text text-anchor="start" x="8" y="-418.6" font-family="Times,serif" font-size="13.00">Models diagram</text>
<text text-anchor="start" x="8" y="-405.6" font-family="Times,serif" font-size="13.00">Date: Aug 04 2014 &#45; 13:44</text>
<text text-anchor="start" x="8" y="-392.6" font-family="Times,serif" font-size="13.00">Migration version: 20140804160512</text>
<text text-anchor="start" x="8" y="-379.6" font-family="Times,serif" font-size="13.00">Generated by RailRoady 1.1.1</text>
<text text-anchor="start" x="8" y="-366.6" font-family="Times,serif" font-size="13.00">http://railroady.prestonlee.com</text>
</g>
<!-- Company -->
<g id="node2" class="node"><title>Company</title>
<ellipse fill="none" stroke="black" cx="234.688" cy="-306" rx="44.4923" ry="18"/>
<text text-anchor="middle" x="234.688" y="-301.8" font-family="Times,serif" font-size="14.00">Company</text>
</g>
<!-- Program -->
<g id="node3" class="node"><title>Program</title>
<ellipse fill="none" stroke="black" cx="304.688" cy="-234" rx="40.6248" ry="18"/>
<text text-anchor="middle" x="304.688" y="-229.8" font-family="Times,serif" font-size="14.00">Program</text>
</g>
<!-- Company&#45;&gt;Program -->
<g id="edge1" class="edge"><title>Company&#45;&gt;Program</title>
<path fill="none" stroke="#682cba" d="M256.494,-283.194C264.517,-275.17 273.625,-266.063 281.745,-257.942"/>
<ellipse fill="none" stroke="#682cba" cx="253.4" cy="-286.287" rx="4.00002" ry="4.00002"/>
<polygon fill="#682cba" stroke="#682cba" points="281.795,-257.892 292.049,-254.003 285.331,-254.357 288.867,-250.821 288.867,-250.821 288.867,-250.821 285.331,-254.357 285.685,-247.639 281.795,-257.892 281.795,-257.892"/>
</g>
<!-- Student -->
<g id="node5" class="node"><title>Student</title>
<ellipse fill="none" stroke="black" cx="179.688" cy="-162" rx="37.2594" ry="18"/>
<text text-anchor="middle" x="179.688" y="-157.8" font-family="Times,serif" font-size="14.00">Student</text>
</g>
<!-- Company&#45;&gt;Student -->
<g id="edge2" class="edge"><title>Company&#45;&gt;Student</title>
<path fill="none" stroke="#de0f48" d="M219.279,-279.049C207.69,-253.849 192.905,-215.749 184.761,-190.149"/>
<polygon fill="#de0f48" stroke="#de0f48" points="219.448,-279.404 219.684,-290.367 221.597,-283.918 223.747,-288.433 223.747,-288.433 223.747,-288.433 221.597,-283.918 227.81,-286.499 219.448,-279.404 219.448,-279.404"/>
<polygon fill="#de0f48" stroke="#de0f48" points="184.692,-189.919 186.107,-179.045 183.245,-185.133 181.799,-180.346 181.799,-180.346 181.799,-180.346 183.245,-185.133 177.491,-181.648 184.692,-189.919 184.692,-189.919"/>
</g>
<!-- Program&#45;&gt;Student -->
<g id="edge4" class="edge"><title>Program&#45;&gt;Student</title>
<path fill="none" stroke="#cc3e1b" d="M273.493,-215.531C254.797,-205.061 231.064,-191.77 212.147,-181.177"/>
<ellipse fill="none" stroke="#cc3e1b" cx="277.096" cy="-217.549" rx="4.00002" ry="4.00002"/>
<polygon fill="#cc3e1b" stroke="#cc3e1b" points="212.016,-181.104 205.49,-172.292 207.654,-178.661 203.291,-176.218 203.291,-176.218 203.291,-176.218 207.654,-178.661 201.092,-180.144 212.016,-181.104 212.016,-181.104"/>
</g>
<!-- Project -->
<g id="node4" class="node"><title>Project</title>
<ellipse fill="none" stroke="black" cx="243.688" cy="-90" rx="35.3129" ry="18"/>
<text text-anchor="middle" x="243.688" y="-85.8" font-family="Times,serif" font-size="14.00">Project</text>
</g>
<!-- Project&#45;&gt;Company -->
<g id="edge6" class="edge"><title>Project&#45;&gt;Company</title>
<path fill="none" stroke="#6d9bec" d="M242.62,-116.391C240.887,-157.587 237.484,-238.514 235.753,-279.67"/>
<ellipse fill="none" stroke="#6d9bec" cx="242.795" cy="-112.229" rx="4" ry="4"/>
<ellipse fill="#6d9bec" stroke="#6d9bec" cx="235.577" cy="-283.853" rx="4" ry="4"/>
</g>
<!-- Project&#45;&gt;Student -->
<g id="edge8" class="edge"><title>Project&#45;&gt;Student</title>
<path fill="none" stroke="#d9678c" d="M229.02,-114.028C221.8,-122.51 213.015,-132.058 204.816,-140.32"/>
<ellipse fill="none" stroke="#d9678c" cx="231.644" cy="-110.867" rx="4.00002" ry="4.00002"/>
<ellipse fill="#d9678c" stroke="#d9678c" cx="201.745" cy="-143.347" rx="4.00002" ry="4.00002"/>
</g>
<!-- StudentProject -->
<g id="node6" class="node"><title>StudentProject</title>
<ellipse fill="none" stroke="black" cx="243.688" cy="-18" rx="62.3581" ry="18"/>
<text text-anchor="middle" x="243.688" y="-13.8" font-family="Times,serif" font-size="14.00">StudentProject</text>
</g>
<!-- Project&#45;&gt;StudentProject -->
<g id="edge7" class="edge"><title>Project&#45;&gt;StudentProject</title>
<path fill="none" stroke="#d92b16" d="M243.688,-63.6398C243.688,-58.0629 243.688,-52.1319 243.688,-46.4761"/>
<ellipse fill="none" stroke="#d92b16" cx="243.688" cy="-67.6966" rx="4" ry="4"/>
<polygon fill="#d92b16" stroke="#d92b16" points="243.688,-46.1043 248.188,-36.1043 243.688,-41.1043 243.688,-36.1043 243.688,-36.1043 243.688,-36.1043 243.688,-41.1043 239.188,-36.1044 243.688,-46.1043 243.688,-46.1043"/>
</g>
<!-- Student&#45;&gt;Company -->
<g id="edge10" class="edge"><title>Student&#45;&gt;Company</title>
<path fill="none" stroke="#a880ec" d="M194.097,-186.792C206.121,-212.571 222.022,-253.534 230.241,-279.837"/>
<ellipse fill="none" stroke="#a880ec" cx="192.235" cy="-182.917" rx="4.00002" ry="4.00002"/>
<ellipse fill="#a880ec" stroke="#a880ec" cx="231.494" cy="-284.038" rx="4.00001" ry="4.00001"/>
</g>
<!-- Student&#45;&gt;Project -->
<g id="edge12" class="edge"><title>Student&#45;&gt;Project</title>
<path fill="none" stroke="#de555c" d="M195.618,-136.497C202.277,-128.753 210.105,-120.255 217.531,-112.72"/>
<polygon fill="#de555c" stroke="#de555c" points="195.421,-136.733 185.56,-141.528 192.218,-140.572 189.015,-144.411 189.015,-144.411 189.015,-144.411 192.218,-140.572 192.47,-147.294 195.421,-136.733 195.421,-136.733"/>
<polygon fill="#de555c" stroke="#de555c" points="217.653,-112.6 227.928,-108.771 221.209,-109.085 224.765,-105.57 224.765,-105.57 224.765,-105.57 221.209,-109.085 221.602,-102.37 217.653,-112.6 217.653,-112.6"/>
</g>
<!-- Student&#45;&gt;StudentProject -->
<g id="edge11" class="edge"><title>Student&#45;&gt;StudentProject</title>
<path fill="none" stroke="#a19264" d="M182.139,-135.862C184.681,-117.434 189.75,-92.2119 199.688,-72 204.726,-61.7526 212.127,-51.7762 219.428,-43.2943"/>
<ellipse fill="none" stroke="#a19264" cx="181.639" cy="-139.84" rx="4.00001" ry="4.00001"/>
<polygon fill="#a19264" stroke="#a19264" points="219.617,-43.0846 229.657,-38.6744 222.966,-39.3723 226.316,-35.6599 226.316,-35.6599 226.316,-35.6599 222.966,-39.3723 222.975,-32.6454 219.617,-43.0846 219.617,-43.0846"/>
</g>
<!-- ActiveRecord::Base -->
<g id="node7" class="node"><title>ActiveRecord::Base</title>
<ellipse fill="none" stroke="black" cx="306.688" cy="-396.5" rx="81.1422" ry="18"/>
<text text-anchor="middle" x="306.688" y="-392.3" font-family="Times,serif" font-size="14.00">ActiveRecord::Base</text>
</g>
<!-- ActiveRecord::Base&#45;&gt;Company -->
<g id="edge3" class="edge"><title>ActiveRecord::Base&#45;&gt;Company</title>
<path fill="none" stroke="black" d="M292.805,-378.436C279.892,-362.564 260.781,-339.073 248.041,-323.413"/>
</g>
<!-- ActiveRecord::Base&#45;&gt;Program -->
<g id="edge5" class="edge"><title>ActiveRecord::Base&#45;&gt;Program</title>
<path fill="none" stroke="black" d="M306.474,-378.324C306.089,-347.432 305.284,-282.855 304.9,-252.053"/>
</g>
<!-- ActiveRecord::Base&#45;&gt;Project -->
<g id="edge9" class="edge"><title>ActiveRecord::Base&#45;&gt;Project</title>
<path fill="none" stroke="black" d="M318.312,-378.309C338.686,-345.918 376.684,-273.898 354.688,-216 336.341,-167.707 289.843,-126.139 263.213,-105.292"/>
</g>
<!-- ActiveRecord::Base&#45;&gt;Student -->
<g id="edge13" class="edge"><title>ActiveRecord::Base&#45;&gt;Student</title>
<path fill="none" stroke="black" d="M259.526,-381.691C231.63,-370.838 198.549,-352.659 181.688,-324 154.613,-277.983 166.825,-211.01 174.773,-179.967"/>
</g>
<!-- ActiveRecord::Base&#45;&gt;StudentProject -->
<g id="edge14" class="edge"><title>ActiveRecord::Base&#45;&gt;StudentProject</title>
<path fill="none" stroke="black" d="M327.182,-378.875C357.739,-352.073 411.688,-296.101 411.688,-235 411.688,-235 411.688,-235 411.688,-161 411.688,-93.7861 332.281,-51.8741 282.653,-32.243"/>
</g>
</g>
</svg>
