<?xml version="1.0" encoding="UTF-8" standalone="no"?>
<!DOCTYPE svg PUBLIC "-//W3C//DTD SVG 1.1//EN"
 "http://www.w3.org/Graphics/SVG/1.1/DTD/svg11.dtd">
<!-- Generated by graphviz version 2.38.0 (20140413.2041)
 -->
<!-- Title: models_diagram Pages: 1 -->
<svg width="505pt" height="643pt"
 viewBox="0.00 0.00 504.82 643.00" xmlns="http://www.w3.org/2000/svg" xmlns:xlink="http://www.w3.org/1999/xlink">
<g id="graph0" class="graph" transform="scale(1 1) rotate(0) translate(4 639)">
<title>models_diagram</title>
<polygon fill="white" stroke="none" points="-4,4 -4,-639 500.819,-639 500.819,4 -4,4"/>
<!-- _diagram_info -->
<g id="node1" class="node"><title>_diagram_info</title>
<text text-anchor="start" x="8" y="-620.6" font-family="Times,serif" font-size="13.00">Models diagram</text>
<text text-anchor="start" x="8" y="-607.6" font-family="Times,serif" font-size="13.00">Date: Aug 04 2014 &#45; 13:48</text>
<text text-anchor="start" x="8" y="-594.6" font-family="Times,serif" font-size="13.00">Migration version: 20140804160512</text>
<text text-anchor="start" x="8" y="-581.6" font-family="Times,serif" font-size="13.00">Generated by RailRoady 1.1.1</text>
<text text-anchor="start" x="8" y="-568.6" font-family="Times,serif" font-size="13.00">http://railroady.prestonlee.com</text>
</g>
<!-- Company -->
<g id="node2" class="node"><title>Company</title>
<path fill="none" stroke="black" d="M252.182,-439.5C252.182,-439.5 361.193,-439.5 361.193,-439.5 367.193,-439.5 373.193,-445.5 373.193,-451.5 373.193,-451.5 373.193,-513.5 373.193,-513.5 373.193,-519.5 367.193,-525.5 361.193,-525.5 361.193,-525.5 252.182,-525.5 252.182,-525.5 246.182,-525.5 240.182,-519.5 240.182,-513.5 240.182,-513.5 240.182,-451.5 240.182,-451.5 240.182,-445.5 246.182,-439.5 252.182,-439.5"/>
<text text-anchor="middle" x="306.688" y="-510.3" font-family="Times,serif" font-size="14.00">Company</text>
<polyline fill="none" stroke="black" points="240.182,-503.5 373.193,-503.5 "/>
<text text-anchor="start" x="248.182" y="-488.3" font-family="Times,serif" font-size="14.00">id :integer</text>
<text text-anchor="start" x="248.182" y="-474.3" font-family="Times,serif" font-size="14.00">name :string</text>
<text text-anchor="start" x="248.182" y="-460.3" font-family="Times,serif" font-size="14.00">created_at :datetime</text>
<text text-anchor="start" x="248.182" y="-446.3" font-family="Times,serif" font-size="14.00">updated_at :datetime</text>
</g>
<!-- Program -->
<g id="node3" class="node"><title>Program</title>
<path fill="none" stroke="black" d="M148.182,-295.5C148.182,-295.5 257.193,-295.5 257.193,-295.5 263.193,-295.5 269.193,-301.5 269.193,-307.5 269.193,-307.5 269.193,-383.5 269.193,-383.5 269.193,-389.5 263.193,-395.5 257.193,-395.5 257.193,-395.5 148.182,-395.5 148.182,-395.5 142.182,-395.5 136.182,-389.5 136.182,-383.5 136.182,-383.5 136.182,-307.5 136.182,-307.5 136.182,-301.5 142.182,-295.5 148.182,-295.5"/>
<text text-anchor="middle" x="202.688" y="-380.3" font-family="Times,serif" font-size="14.00">Program</text>
<polyline fill="none" stroke="black" points="136.182,-373.5 269.193,-373.5 "/>
<text text-anchor="start" x="144.182" y="-358.3" font-family="Times,serif" font-size="14.00">id :integer</text>
<text text-anchor="start" x="144.182" y="-344.3" font-family="Times,serif" font-size="14.00">name :string</text>
<text text-anchor="start" x="144.182" y="-330.3" font-family="Times,serif" font-size="14.00">company_id :integer</text>
<text text-anchor="start" x="144.182" y="-316.3" font-family="Times,serif" font-size="14.00">created_at :datetime</text>
<text text-anchor="start" x="144.182" y="-302.3" font-family="Times,serif" font-size="14.00">updated_at :datetime</text>
</g>
<!-- Company&#45;&gt;Program -->
<g id="edge1" class="edge"><title>Company&#45;&gt;Program</title>
<path fill="none" stroke="#aa9e71" d="M269.013,-432.595C261.799,-423.232 254.187,-413.35 246.793,-403.752"/>
<ellipse fill="none" stroke="#aa9e71" cx="271.626" cy="-435.987" rx="4.00002" ry="4.00002"/>
<polygon fill="#aa9e71" stroke="#aa9e71" points="246.75,-403.696 244.212,-393.028 243.698,-399.735 240.647,-395.774 240.647,-395.774 240.647,-395.774 243.698,-399.735 237.082,-398.52 246.75,-403.696 246.75,-403.696"/>
</g>
<!-- Student -->
<g id="node5" class="node"><title>Student</title>
<path fill="none" stroke="black" d="M252.182,-137.5C252.182,-137.5 361.193,-137.5 361.193,-137.5 367.193,-137.5 373.193,-143.5 373.193,-149.5 373.193,-149.5 373.193,-239.5 373.193,-239.5 373.193,-245.5 367.193,-251.5 361.193,-251.5 361.193,-251.5 252.182,-251.5 252.182,-251.5 246.182,-251.5 240.182,-245.5 240.182,-239.5 240.182,-239.5 240.182,-149.5 240.182,-149.5 240.182,-143.5 246.182,-137.5 252.182,-137.5"/>
<text text-anchor="middle" x="306.688" y="-236.3" font-family="Times,serif" font-size="14.00">Student</text>
<polyline fill="none" stroke="black" points="240.182,-229.5 373.193,-229.5 "/>
<text text-anchor="start" x="248.182" y="-214.3" font-family="Times,serif" font-size="14.00">id :integer</text>
<text text-anchor="start" x="248.182" y="-200.3" font-family="Times,serif" font-size="14.00">username :string</text>
<text text-anchor="start" x="248.182" y="-186.3" font-family="Times,serif" font-size="14.00">name :string</text>
<text text-anchor="start" x="248.182" y="-172.3" font-family="Times,serif" font-size="14.00">program_id :integer</text>
<text text-anchor="start" x="248.182" y="-158.3" font-family="Times,serif" font-size="14.00">created_at :datetime</text>
<text text-anchor="start" x="248.182" y="-144.3" font-family="Times,serif" font-size="14.00">updated_at :datetime</text>
</g>
<!-- Company&#45;&gt;Student -->
<g id="edge2" class="edge"><title>Company&#45;&gt;Student</title>
<path fill="none" stroke="#fe8bc3" d="M301.333,-429.289C299.637,-382.259 299.487,-312.886 300.885,-261.921"/>
<polygon fill="#fe8bc3" stroke="#fe8bc3" points="301.333,-429.308 297.236,-439.479 301.533,-434.304 301.732,-439.3 301.732,-439.3 301.732,-439.3 301.533,-434.304 306.229,-439.12 301.333,-429.308 301.333,-429.308"/>
<polygon fill="#fe8bc3" stroke="#fe8bc3" points="300.892,-261.659 305.693,-251.799 301.044,-256.661 301.195,-251.663 301.195,-251.663 301.195,-251.663 301.044,-256.661 296.697,-251.527 300.892,-261.659 300.892,-261.659"/>
</g>
<!-- Program&#45;&gt;Student -->
<g id="edge4" class="edge"><title>Program&#45;&gt;Student</title>
<path fill="none" stroke="#3a5555" d="M241.668,-288.653C248.206,-279.287 255.036,-269.501 261.709,-259.94"/>
<ellipse fill="none" stroke="#3a5555" cx="239.319" cy="-292.019" rx="4.00002" ry="4.00002"/>
<polygon fill="#3a5555" stroke="#3a5555" points="261.798,-259.812 271.212,-254.188 264.66,-255.712 267.522,-251.612 267.522,-251.612 267.522,-251.612 264.66,-255.712 263.832,-249.037 261.798,-259.812 261.798,-259.812"/>
</g>
<!-- Project -->
<g id="node4" class="node"><title>Project</title>
<path fill="none" stroke="black" d="M356.182,-288.5C356.182,-288.5 465.193,-288.5 465.193,-288.5 471.193,-288.5 477.193,-294.5 477.193,-300.5 477.193,-300.5 477.193,-390.5 477.193,-390.5 477.193,-396.5 471.193,-402.5 465.193,-402.5 465.193,-402.5 356.182,-402.5 356.182,-402.5 350.182,-402.5 344.182,-396.5 344.182,-390.5 344.182,-390.5 344.182,-300.5 344.182,-300.5 344.182,-294.5 350.182,-288.5 356.182,-288.5"/>
<text text-anchor="middle" x="410.688" y="-387.3" font-family="Times,serif" font-size="14.00">Project</text>
<polyline fill="none" stroke="black" points="344.182,-380.5 477.193,-380.5 "/>
<text text-anchor="start" x="352.182" y="-365.3" font-family="Times,serif" font-size="14.00">id :integer</text>
<text text-anchor="start" x="352.182" y="-351.3" font-family="Times,serif" font-size="14.00">name :string</text>
<text text-anchor="start" x="352.182" y="-337.3" font-family="Times,serif" font-size="14.00">program_id :integer</text>
<text text-anchor="start" x="352.182" y="-323.3" font-family="Times,serif" font-size="14.00">company_id :integer</text>
<text text-anchor="start" x="352.182" y="-309.3" font-family="Times,serif" font-size="14.00">created_at :datetime</text>
<text text-anchor="start" x="352.182" y="-295.3" font-family="Times,serif" font-size="14.00">updated_at :datetime</text>
</g>
<!-- Project&#45;&gt;Student -->
<g id="edge7" class="edge"><title>Project&#45;&gt;Student</title>
<path fill="none" stroke="#534e03" d="M365.482,-279.734C361.036,-273.364 356.522,-266.897 352.074,-260.524"/>
<polygon fill="#534e03" stroke="#534e03" points="365.646,-279.969 367.68,-290.745 368.508,-284.069 371.37,-288.169 371.37,-288.169 371.37,-288.169 368.508,-284.069 375.06,-285.594 365.646,-279.969 365.646,-279.969"/>
<polygon fill="#534e03" stroke="#534e03" points="351.785,-260.11 349.751,-249.335 348.923,-256.01 346.061,-251.91 346.061,-251.91 346.061,-251.91 348.923,-256.01 342.371,-254.486 351.785,-260.11 351.785,-260.11"/>
</g>
<!-- StudentProject -->
<g id="node6" class="node"><title>StudentProject</title>
<path fill="none" stroke="black" d="M356.182,-0.5C356.182,-0.5 465.193,-0.5 465.193,-0.5 471.193,-0.5 477.193,-6.5 477.193,-12.5 477.193,-12.5 477.193,-88.5 477.193,-88.5 477.193,-94.5 471.193,-100.5 465.193,-100.5 465.193,-100.5 356.182,-100.5 356.182,-100.5 350.182,-100.5 344.182,-94.5 344.182,-88.5 344.182,-88.5 344.182,-12.5 344.182,-12.5 344.182,-6.5 350.182,-0.5 356.182,-0.5"/>
<text text-anchor="middle" x="410.688" y="-85.3" font-family="Times,serif" font-size="14.00">StudentProject</text>
<polyline fill="none" stroke="black" points="344.182,-78.5 477.193,-78.5 "/>
<text text-anchor="start" x="352.182" y="-63.3" font-family="Times,serif" font-size="14.00">id :integer</text>
<text text-anchor="start" x="352.182" y="-49.3" font-family="Times,serif" font-size="14.00">student_id :integer</text>
<text text-anchor="start" x="352.182" y="-35.3" font-family="Times,serif" font-size="14.00">project_id :integer</text>
<text text-anchor="start" x="352.182" y="-21.3" font-family="Times,serif" font-size="14.00">created_at :datetime</text>
<text text-anchor="start" x="352.182" y="-7.3" font-family="Times,serif" font-size="14.00">updated_at :datetime</text>
</g>
<!-- Project&#45;&gt;StudentProject -->
<g id="edge6" class="edge"><title>Project&#45;&gt;StudentProject</title>
<path fill="none" stroke="#a4c23b" d="M410.688,-280.206C410.688,-229.716 410.688,-159.963 410.688,-110.804"/>
<ellipse fill="none" stroke="#a4c23b" cx="410.688" cy="-284.353" rx="4" ry="4"/>
<polygon fill="#a4c23b" stroke="#a4c23b" points="410.688,-110.64 415.188,-100.64 410.688,-105.64 410.688,-100.64 410.688,-100.64 410.688,-100.64 410.688,-105.64 406.188,-100.64 410.688,-110.64 410.688,-110.64"/>
</g>
<!-- Student&#45;&gt;Company -->
<g id="edge9" class="edge"><title>Student&#45;&gt;Company</title>
<path fill="none" stroke="#474525" d="M312.432,-259.802C313.911,-311.624 313.759,-383.473 311.974,-431.166"/>
<ellipse fill="none" stroke="#474525" cx="312.304" cy="-255.661" rx="4" ry="4"/>
<ellipse fill="#474525" stroke="#474525" cx="311.806" cy="-435.303" rx="4" ry="4"/>
</g>
<!-- Student&#45;&gt;StudentProject -->
<g id="edge10" class="edge"><title>Student&#45;&gt;StudentProject</title>
<path fill="none" stroke="#dfb5d6" d="M352.602,-130.809C357.897,-123.579 363.278,-116.233 368.52,-109.076"/>
<ellipse fill="none" stroke="#dfb5d6" cx="350.155" cy="-134.151" rx="4.00002" ry="4.00002"/>
<polygon fill="#dfb5d6" stroke="#dfb5d6" points="368.688,-108.846 378.227,-103.438 371.642,-104.812 374.596,-100.779 374.596,-100.779 374.596,-100.779 371.642,-104.812 370.966,-98.1197 368.688,-108.846 368.688,-108.846"/>
</g>
<!-- ActiveRecord::Base -->
<g id="node7" class="node"><title>ActiveRecord::Base</title>
<ellipse fill="none" stroke="black" cx="306.688" cy="-598.5" rx="81.1422" ry="18"/>
<text text-anchor="middle" x="306.688" y="-594.3" font-family="Times,serif" font-size="14.00">ActiveRecord::Base</text>
</g>
<!-- ActiveRecord::Base&#45;&gt;Company -->
<g id="edge3" class="edge"><title>ActiveRecord::Base&#45;&gt;Company</title>
<path fill="none" stroke="black" d="M306.688,-580.186C306.688,-565.735 306.688,-544.529 306.688,-525.656"/>
</g>
<!-- ActiveRecord::Base&#45;&gt;Program -->
<g id="edge5" class="edge"><title>ActiveRecord::Base&#45;&gt;Program</title>
<path fill="none" stroke="black" d="M282.036,-581.128C264.759,-568.264 242.688,-548.754 230.688,-526 209.354,-485.548 203.204,-433.334 201.882,-395.66"/>
</g>
<!-- ActiveRecord::Base&#45;&gt;Project -->
<g id="edge8" class="edge"><title>ActiveRecord::Base&#45;&gt;Project</title>
<path fill="none" stroke="black" d="M331.339,-581.128C348.617,-568.264 370.688,-548.754 382.688,-526 402.698,-488.059 409.349,-439.77 411.189,-402.837"/>
</g>
<!-- ActiveRecord::Base&#45;&gt;Student -->
<g id="edge11" class="edge"><title>ActiveRecord::Base&#45;&gt;Student</title>
<path fill="none" stroke="black" d="M276.882,-581.538C254.633,-568.615 224.447,-548.848 202.688,-526 126.11,-445.59 68.8333,-382.777 126.688,-288 151.309,-247.665 199.745,-224.18 240.176,-210.973"/>
</g>
<!-- ActiveRecord::Base&#45;&gt;StudentProject -->
<g id="edge12" class="edge"><title>ActiveRecord::Base&#45;&gt;StudentProject</title>
<path fill="none" stroke="black" d="M335.374,-581.622C357.186,-568.606 387.033,-548.68 408.688,-526 453.39,-479.182 468.639,-465.165 486.688,-403 517.544,-296.724 469.238,-169.108 436.598,-100.652"/>
</g>
</g>
</svg>
