<?xml version="1.0" encoding="UTF-8" standalone="no"?>
<!DOCTYPE svg PUBLIC "-//W3C//DTD SVG 1.1//EN"
 "http://www.w3.org/Graphics/SVG/1.1/DTD/svg11.dtd">
<!-- Generated by graphviz version 2.38.0 (20140413.2041)
 -->
<!-- Title: models_diagram Pages: 1 -->
<svg width="512pt" height="369pt"
 viewBox="0.00 0.00 512.31 369.00" xmlns="http://www.w3.org/2000/svg" xmlns:xlink="http://www.w3.org/1999/xlink">
<g id="graph0" class="graph" transform="scale(1 1) rotate(0) translate(4 365)">
<title>models_diagram</title>
<polygon fill="white" stroke="none" points="-4,4 -4,-365 508.308,-365 508.308,4 -4,4"/>
<!-- _diagram_info -->
<g id="node1" class="node"><title>_diagram_info</title>
<text text-anchor="start" x="8" y="-346.6" font-family="Times,serif" font-size="13.00">Models diagram</text>
<text text-anchor="start" x="8" y="-333.6" font-family="Times,serif" font-size="13.00">Date: Aug 04 2014 &#45; 13:39</text>
<text text-anchor="start" x="8" y="-320.6" font-family="Times,serif" font-size="13.00">Migration version: 20140804160512</text>
<text text-anchor="start" x="8" y="-307.6" font-family="Times,serif" font-size="13.00">Generated by RailRoady 1.1.1</text>
<text text-anchor="start" x="8" y="-294.6" font-family="Times,serif" font-size="13.00">http://railroady.prestonlee.com</text>
</g>
<!-- Company -->
<g id="node2" class="node"><title>Company</title>
<ellipse fill="none" stroke="black" cx="177.688" cy="-234" rx="44.4923" ry="18"/>
<text text-anchor="middle" x="177.688" y="-229.8" font-family="Times,serif" font-size="14.00">Company</text>
</g>
<!-- Program -->
<g id="node3" class="node"><title>Program</title>
<ellipse fill="none" stroke="black" cx="237.688" cy="-162" rx="40.6248" ry="18"/>
<text text-anchor="middle" x="237.688" y="-157.8" font-family="Times,serif" font-size="14.00">Program</text>
</g>
<!-- Company&#45;&gt;Program -->
<g id="edge1" class="edge"><title>Company&#45;&gt;Program</title>
<path fill="none" stroke="#7bbf03" d="M196.851,-210.643C203.297,-203.123 210.513,-194.704 217.065,-187.06"/>
<ellipse fill="none" stroke="#7bbf03" cx="194.207" cy="-213.728" rx="4.00002" ry="4.00002"/>
<polygon fill="#7bbf03" stroke="#7bbf03" points="217.339,-186.74 227.264,-182.076 220.593,-182.944 223.847,-179.147 223.847,-179.147 223.847,-179.147 220.593,-182.944 220.431,-176.219 217.339,-186.74 217.339,-186.74"/>
</g>
<!-- Student -->
<g id="node5" class="node"><title>Student</title>
<ellipse fill="none" stroke="black" cx="254.688" cy="-90" rx="37.2594" ry="18"/>
<text text-anchor="middle" x="254.688" y="-85.8" font-family="Times,serif" font-size="14.00">Student</text>
</g>
<!-- Company&#45;&gt;Student -->
<g id="edge2" class="edge"><title>Company&#45;&gt;Student</title>
<path fill="none" stroke="#49395f" d="M167.904,-205.97C166.159,-187.428 168.217,-162.865 178.688,-144 187.331,-128.429 202.606,-115.804 217.32,-106.788"/>
<polygon fill="#49395f" stroke="#49395f" points="167.937,-206.2 164.88,-216.732 168.636,-211.151 169.336,-216.102 169.336,-216.102 169.336,-216.102 168.636,-211.151 173.792,-215.472 167.937,-206.2 167.937,-206.2"/>
<polygon fill="#49395f" stroke="#49395f" points="217.655,-106.597 228.572,-105.557 222,-104.122 226.344,-101.647 226.344,-101.647 226.344,-101.647 222,-104.122 224.116,-97.7367 217.655,-106.597 217.655,-106.597"/>
</g>
<!-- Program&#45;&gt;Student -->
<g id="edge4" class="edge"><title>Program&#45;&gt;Student</title>
<path fill="none" stroke="#917246" d="M243.694,-136.267C245.099,-130.485 246.603,-124.291 248.033,-118.4"/>
<ellipse fill="none" stroke="#917246" cx="242.747" cy="-140.168" rx="4.00001" ry="4.00001"/>
<polygon fill="#917246" stroke="#917246" points="248.132,-117.993 254.865,-109.337 249.312,-113.134 250.492,-108.275 250.492,-108.275 250.492,-108.275 249.312,-113.134 246.119,-107.213 248.132,-117.993 248.132,-117.993"/>
</g>
<!-- Project -->
<g id="node4" class="node"><title>Project</title>
<ellipse fill="none" stroke="black" cx="369.688" cy="-162" rx="35.3129" ry="18"/>
<text text-anchor="middle" x="369.688" y="-157.8" font-family="Times,serif" font-size="14.00">Project</text>
</g>
<!-- Project&#45;&gt;Student -->
<g id="edge7" class="edge"><title>Project&#45;&gt;Student</title>
<path fill="none" stroke="#0e1c71" d="M339.213,-142.45C322.684,-132.389 302.299,-119.981 285.69,-109.871"/>
<polygon fill="#0e1c71" stroke="#0e1c71" points="339.244,-142.469 345.447,-151.513 343.515,-145.069 347.786,-147.669 347.786,-147.669 347.786,-147.669 343.515,-145.069 350.126,-143.825 339.244,-142.469 339.244,-142.469"/>
<polygon fill="#0e1c71" stroke="#0e1c71" points="285.441,-109.72 279.239,-100.676 281.17,-107.12 276.899,-104.52 276.899,-104.52 276.899,-104.52 281.17,-107.12 274.559,-108.364 285.441,-109.72 285.441,-109.72"/>
</g>
<!-- StudentProject -->
<g id="node8" class="node"><title>StudentProject</title>
<ellipse fill="none" stroke="black" cx="303.688" cy="-18" rx="62.3581" ry="18"/>
<text text-anchor="middle" x="303.688" y="-13.8" font-family="Times,serif" font-size="14.00">StudentProject</text>
</g>
<!-- Project&#45;&gt;StudentProject -->
<g id="edge6" class="edge"><title>Project&#45;&gt;StudentProject</title>
<path fill="none" stroke="#d4b921" d="M358.467,-136.859C346.636,-111.404 328.056,-71.4278 315.872,-45.2151"/>
<ellipse fill="none" stroke="#d4b921" cx="360.302" cy="-140.806" rx="4.00002" ry="4.00002"/>
<polygon fill="#d4b921" stroke="#d4b921" points="315.758,-44.9701 315.624,-34.005 313.651,-40.4359 311.543,-35.9017 311.543,-35.9017 311.543,-35.9017 313.651,-40.4359 307.463,-37.7985 315.758,-44.9701 315.758,-44.9701"/>
</g>
<!-- Student&#45;&gt;Company -->
<g id="edge9" class="edge"><title>Student&#45;&gt;Company</title>
<path fill="none" stroke="#02ec7a" d="M228.632,-110.273C216.954,-118.95 204.269,-130.341 196.688,-144 185.825,-163.57 184.017,-189.273 182.915,-208.023"/>
<ellipse fill="none" stroke="#02ec7a" cx="232.09" cy="-107.805" rx="4.00002" ry="4.00002"/>
<ellipse fill="#02ec7a" stroke="#02ec7a" cx="182.669" cy="-212.109" rx="4" ry="4"/>
</g>
<!-- Student&#45;&gt;StudentProject -->
<g id="edge10" class="edge"><title>Student&#45;&gt;StudentProject</title>
<path fill="none" stroke="#73ba6e" d="M270.803,-65.9779C275.593,-59.1356 280.869,-51.5988 285.766,-44.603"/>
<ellipse fill="none" stroke="#73ba6e" cx="268.346" cy="-69.4877" rx="4.00002" ry="4.00002"/>
<polygon fill="#73ba6e" stroke="#73ba6e" points="285.966,-44.3163 295.388,-38.7045 288.834,-40.2201 291.701,-36.1239 291.701,-36.1239 291.701,-36.1239 288.834,-40.2201 288.014,-33.5433 285.966,-44.3163 285.966,-44.3163"/>
</g>
<!-- StudentProjects -->
<g id="node6" class="node"><title>StudentProjects</title>
<ellipse fill="none" stroke="black" cx="438.688" cy="-234" rx="65.7408" ry="18"/>
<text text-anchor="middle" x="438.688" y="-229.8" font-family="Times,serif" font-size="14.00">StudentProjects</text>
</g>
<!-- ActiveRecord::Base -->
<g id="node7" class="node"><title>ActiveRecord::Base</title>
<ellipse fill="none" stroke="black" cx="306.688" cy="-324.5" rx="81.1422" ry="18"/>
<text text-anchor="middle" x="306.688" y="-320.3" font-family="Times,serif" font-size="14.00">ActiveRecord::Base</text>
</g>
<!-- ActiveRecord::Base&#45;&gt;Company -->
<g id="edge3" class="edge"><title>ActiveRecord::Base&#45;&gt;Company</title>
<path fill="none" stroke="black" d="M283.027,-307.268C259.17,-290.9 222.648,-265.845 199.48,-249.95"/>
</g>
<!-- ActiveRecord::Base&#45;&gt;Program -->
<g id="edge5" class="edge"><title>ActiveRecord::Base&#45;&gt;Program</title>
<path fill="none" stroke="black" d="M299.304,-306.324C286.023,-275.432 258.261,-210.855 245.019,-180.053"/>
</g>
<!-- ActiveRecord::Base&#45;&gt;Project -->
<g id="edge8" class="edge"><title>ActiveRecord::Base&#45;&gt;Project</title>
<path fill="none" stroke="black" d="M313.43,-306.324C325.556,-275.432 350.904,-210.855 362.994,-180.053"/>
</g>
<!-- ActiveRecord::Base&#45;&gt;Student -->
<g id="edge11" class="edge"><title>ActiveRecord::Base&#45;&gt;Student</title>
<path fill="none" stroke="black" d="M307.381,-306.376C308.162,-273.796 307.303,-201.046 287.688,-144 283.106,-130.675 274.668,-117.216 267.471,-107.195"/>
</g>
<!-- ActiveRecord::Base&#45;&gt;StudentProjects -->
<g id="edge12" class="edge"><title>ActiveRecord::Base&#45;&gt;StudentProjects</title>
<path fill="none" stroke="black" d="M330.899,-307.268C354.864,-291.2 391.319,-266.759 415.075,-250.832"/>
</g>
</g>
</svg>
